<?xml version="1.0" encoding="UTF-8"?>
<svg id="Layer_1" data-name="Layer 1" xmlns="http://www.w3.org/2000/svg" xmlns:xlink="http://www.w3.org/1999/xlink" viewBox="0 0 2040.94 1133.86">
  <defs>
    
    
    <clipPath id="clippath">
      <rect class="cls-5" style="fill:none" x="62.43" y="276.14" width="1866.28" height="517.12"></rect>
    </clipPath>
    <clipPath id="clippath-1">
      <rect class="cls-5" style="fill:none" x="62.43" y="276.14" width="1866.28" height="517.12"></rect>
    </clipPath>
  </defs>
  <rect class="cls-2" style="fill:#1D1B1C" x="964.12" y="337.45" width="16.07" height="174.3"></rect>
  <path class="cls-2" style="fill:#1D1B1C" d="m1152.23,384.16c25.37,0,38.67,17.33,38.67,51.23v76.35h-15.82v-72.58c0-27.37-7.79-40.43-26.12-40.43-21.1,0-35.42,16.83-35.42,47.97v65.05h-15.56v-72.58c0-27.12-7.79-40.43-26.12-40.43-21.1,0-35.41,16.83-35.41,47.97v65.05h-15.83v-125.07h14.57v23.61c8.54-17.08,22.86-26.12,39.93-26.12s30.14,9.29,36.17,27.63c8.79-17.83,23.61-27.63,40.94-27.63"></path>
  <path class="cls-2" style="fill:#1D1B1C" d="m1282.08,397.47c-22.35,0-38.92,18.83-38.92,50.73s14.81,52.24,38.68,52.24c21.09,0,36.41-19.08,36.41-51.99s-14.06-50.98-36.17-50.98m-38.92,166.76h-15.83v-177.56h14.57v24.61c9.55-17.83,25.12-27.37,43.2-27.37,29.89,0,50.23,23.86,50.23,63.54s-20.84,65.8-51.98,65.8c-17.08,0-31.4-8.03-40.18-22.86v73.84Z"></path>
  <path class="cls-2" style="fill:#1D1B1C" d="m1368.73,476.59c0,14.07,9.8,24.11,25.12,24.11,22.86,0,38.17-15.32,38.17-40.94v-11.55h-17.58c-29.88,0-45.71,10.55-45.71,28.38m78.87,35.16h-14.06v-21.6c-9.3,15.32-23.61,23.36-41.7,23.36-24.36,0-39.68-14.57-39.68-35.92,0-26.12,22.35-42.19,63.79-42.19h16.07c0-1.51.25-2.76.25-4.27,0-21.1-11.3-33.15-29.38-33.15-12.56,0-24.11,3.26-35.92,10.55v-15.32c12.31-6.03,25.12-9.29,37.68-9.29,28.63,0,42.95,16.07,42.95,47.97v79.86Z"></path>
  <path class="cls-2" style="fill:#1D1B1C" d="m1565.14,406.27c-8.28-4.52-17.58-6.53-28.38-6.53-26.38,0-45.71,19.59-45.71,49.48s17.58,49.48,44.71,49.48c9.54,0,19.34-2.26,29.63-6.78l1.51,15.57c-9.8,3.77-20.6,5.77-32.14,5.77-36.42,0-60.53-25.37-60.53-64.29s25.62-63.29,63.29-63.29c10.55,0,19.84,1.51,28.89,4.78l-1.26,15.82Z"></path>
  <path class="cls-2" style="fill:#1D1B1C" d="m1616.12,386.67h29.14v12.81h-29.14v73.09c0,18.83,3.77,27.12,17.83,27.12,3.77,0,8.03-.75,12.81-2.76v14.31c-5.27,1.51-10.54,2.26-16.07,2.26-23.11,0-30.39-11.55-30.39-38.17v-75.85h-25.62v-12.81h25.62v-31.64l15.82-5.53v37.17Z"></path>
  <path class="cls-2" style="fill:#1D1B1C" d="m1713.32,396.97c-19.84,0-34.91,16.07-37.42,43.45h72.58c-1.76-28.13-14.31-43.45-35.16-43.45m50.48,55h-88.41c1,31.9,17.08,49.23,45.2,49.23,11.3,0,22.35-3.01,33.66-9.04v15.57c-11.05,4.78-22.61,7.03-35.16,7.03-36.92,0-59.02-24.61-59.02-66.3,0-39.44,22.6-64.8,55.01-64.8,29.13,0,48.72,22.1,48.72,59.27v9.04Z"></path>
  <path class="cls-2" style="fill:#1D1B1C" d="m1844.92,401.74c-3.26-.75-6.28-1.26-8.79-1.26-20.6,0-33.66,16.32-33.66,44.95v66.31h-15.83v-125.07h14.57v26.37c6.28-18.09,19.34-28.13,35.66-28.13,2.26,0,4.77.25,8.03.75v16.07Z"></path>
  <path class="cls-2" style="fill:#1D1B1C" d="m985.1,588.81v58.87h14.1c11.21,0,19.79-2.52,25.76-7.54,5.97-5.04,8.96-12.25,8.96-21.65s-2.84-16.8-8.53-21.96c-5.68-5.15-13.75-7.73-24.22-7.73h-16.07Zm-34.33-24.52h51.75c22.57,0,39.29,4.44,50.16,13.3,10.86,8.88,16.3,22.51,16.3,40.91,0,17-5.68,30.21-17.04,39.6-11.36,9.41-27.44,14.1-48.19,14.1h-18.65v66.35h-34.33v-174.27Z"></path>
  <path class="cls-2" style="fill:#1D1B1C" d="m1156.45,684.59c0,10.06-2.92,18.25-8.71,24.59-5.81,6.34-13.2,9.51-22.2,9.51-6.21,0-11.25-1.74-15.08-5.22-3.84-3.48-5.76-7.99-5.76-13.56,0-7.35,3.38-12.89,10.12-16.61,6.74-3.72,16.78-5.58,30.1-5.58h11.54v6.87Zm18.2-62.73c-8.79-9.28-22.74-13.91-41.88-13.91h-40.57v22.07h32.85c9.97,0,17.7,2.39,23.18,7.17,5.48,4.79,8.22,11.51,8.22,20.18v1.83h-16.81c-22.31,0-39.07,3.55-50.28,10.62s-16.81,17.68-16.81,31.82c0,11.85,3.93,21.52,11.78,29.01,7.85,7.48,18.15,11.22,30.91,11.22,8.9,0,17.01-2.03,24.28-6.07,7.27-4.04,13.57-10,18.89-17.84l.49,20.6h28.94v-72.6c0-20.11-4.39-34.81-13.18-44.09"></path>
  <path class="cls-2" style="fill:#1D1B1C" d="m1751.87,684.59c0,10.06-2.91,18.25-8.71,24.59-5.81,6.34-13.2,9.51-22.2,9.51-6.21,0-11.25-1.74-15.08-5.22-3.84-3.48-5.76-7.99-5.76-13.56,0-7.35,3.37-12.89,10.11-16.61,6.74-3.72,16.78-5.58,30.11-5.58h11.54v6.87Zm18.2-62.73c-8.79-9.28-22.74-13.91-41.88-13.91h-40.57v22.07h32.85c9.97,0,17.71,2.39,23.19,7.17,5.48,4.79,8.22,11.51,8.22,20.18v1.83h-16.81c-22.33,0-39.08,3.55-50.28,10.62-11.2,7.07-16.81,17.68-16.81,31.82,0,11.85,3.93,21.52,11.78,29.01,7.85,7.48,18.15,11.22,30.91,11.22,8.91,0,17.01-2.03,24.28-6.07,7.28-4.04,13.57-10,18.88-17.84l.49,20.6h28.95v-72.6c0-20.11-4.4-34.81-13.19-44.09"></path>
  <path class="cls-2" style="fill:#1D1B1C" d="m1314.41,550.68h32.61v79.59c4.5-7.36,10.32-12.92,17.48-16.68,7.15-3.76,15.47-5.64,24.96-5.64,14.96,0,26.29,4.64,33.97,13.91,7.68,9.29,11.53,22.92,11.53,40.9v75.79h-33v-68.8c0-11.77-2.01-20.45-6.06-26.06-4.04-5.6-10.36-8.4-18.95-8.4-9.16,0-16.43,3.58-21.83,10.73-5.39,7.16-8.1,16.9-8.1,29.25v63.28h-32.61v-187.88Z"></path>
  <path class="cls-2" style="fill:#1D1B1C" d="m1450.29,611.26h34.83l22.69,90.39c.41,1.96.84,4.74,1.29,8.34.45,3.6.83,7.56,1.16,11.89.41-4.83.86-9.1,1.35-12.81.49-3.72.89-6.11,1.23-7.18l24.77-90.63h39.73l24.41,91.25c.33,1.22.68,3.47,1.04,6.74.36,3.27.75,7.48,1.16,12.63.5-7.11.86-11.94,1.1-14.48.25-2.53.45-4.08.61-4.65l24.41-91.49h31.88l-40.47,127.3h-37.4l-25.63-95.17c-.57-2.29-1.07-4.97-1.48-8.04-.4-3.06-.65-6.23-.73-9.5-.49,4.83-.91,8.67-1.29,11.53-.37,2.86-.67,4.66-.91,5.39l-26.13,95.78h-38.01l-39.62-127.3Z"></path>
  <path class="cls-2" style="fill:#1D1B1C" d="m1797.85,611.26h35.32l31.64,97.37,30.91-97.37h32.99l-50.29,133.07c-6.86,18.39-14.31,31.14-22.37,38.25-8.06,7.12-18.67,10.67-31.83,10.67-2.21,0-4.84-.16-7.9-.49-3.07-.33-6.65-.82-10.74-1.47l2.71-25.63c1.87.57,3.71,1.02,5.51,1.35,1.8.32,3.53.49,5.16.49,6.38,0,11.79-1.89,16.25-5.65,4.46-3.76,8.73-10.01,12.82-18.76l-50.16-131.84Z"></path>
  <rect class="cls-5" style="fill:none" x="62.43" y="276.14" width="1866.28" height="517.12"></rect>
  <rect class="cls-5" style="fill:none" x="62.43" y="276.14" width="1866.28" height="517.12"></rect>
  <polygon class="cls-3" style="fill:#638EC5" points="62.43 338.36 263.07 538.99 62.43 739.63 485.19 739.63 685.84 538.99 485.19 338.36 62.43 338.36"></polygon>
  <polygon class="cls-4" style="fill:#F37163" points="774.69 538.99 574.06 739.63 695.87 739.63 896.51 538.99 695.87 338.35 574.06 338.35 774.69 538.99"></polygon>
  <g class="cls-6" style="fill:none">
    <path class="cls-1" style="fill:#ffffff" d="m667.47,534.2c-7.05,0-11.65-1.08-14.59-6.12-1.24-2.12-3.63-3.84-6.18-6.45-3.05,2.66-5.22,4.85-7.79,6.7-1.85,1.33-4.26,2.2-6.42,3.28-1.22-1.6-3.03-3.07-3.51-4.79-1.61-5.82-2.58-11.75-4.14-17.6-.56-2.13-2.12-4.09-3.22-6.14-.91.08-1.84.18-2.76.27-1.57,8.3-3.14,16.61-4.7,24.91-1.1,0-2.19-.02-3.28-.03-1.57-6.06-3.17-12.13-4.73-18.2-2.43-9.46-4.5-18.98-7.43-28.35-.86-2.75-4.08-5.06-6.23-7.58-2.42,2.3-5.17,4.45-7.13,6.97-1.48,1.91-1.99,4.27-2.79,6.47-2.13,5.73-4.04,11.51-6.37,17.19-.81,1.97-2.59,3.7-3.93,5.55-.65-.06-1.3-.13-1.96-.2-.88-2.07-2.19-4.09-2.58-6.21-2.83-15.28-5.22-30.62-8.27-45.88-1.52-7.59-3.72-15.15-6.46-22.54-1.7-4.6-5.14-5-9.45-1.58-2.34,1.85-4.32,4.1-5.8,6.42-3.02,4.71-5.47,9.65-8.4,14.39-1.05,1.7-2.82,3.13-4.27,4.68-.76-.09-1.55-.18-2.31-.28-.93-3.48-2.29-6.93-2.71-10.45-1.97-16.25-3.6-32.53-5.55-48.78-.5-4.26-1.6-8.48-2.43-12.72-.88.01-1.77.03-2.64.04-2.69,20.8-5.37,41.6-8.06,62.4-1.03-.02-2.06-.04-3.1-.06-.47-2.65-1.19-5.29-1.38-7.97-1.5-21.73-2.68-43.49-4.42-65.21-.8-9.96-2.47-19.9-4.13-29.82-.48-2.81-2.34-5.49-3.55-8.23-.73.1-1.46.2-2.18.31-.69,1.97-1.77,3.91-1.98,5.92-1.92,17.47-4.08,34.93-5.42,52.43-1.7,22.08-2.68,44.19-4.11,66.29-.13,2.17-1.26,4.31-1.92,6.46-.69-.04-1.37-.07-2.06-.1-3.39-7.76-6.77-15.52-10.15-23.29-1.14.03-2.28.05-3.44.08-1.4,4.05-3.36,8.04-4.11,12.17-2.96,16.15-5.43,32.35-8.35,48.51-.45,2.44-2.33,4.73-3.54,7.08-.72-.09-1.43-.18-2.15-.27-.95-1.89-2.24-3.73-2.77-5.67-1.45-5.32-2.03-10.82-4.02-16-1.25-3.2-4.47-5.94-6.8-8.88-2.71,2.76-6.73,5.22-7.9,8.32-3.05,8.06-4.76,16.42-7.16,24.64-.7,2.43-1.89,4.78-3.27,8.18-4.18-2.83-7.19-4.9-10.24-6.91-2.76-1.81-5.26-4.47-8.45-5.15-7.85-1.67-11.13-6.14-14.25-11.16-3.1-5.03-6.61-9.92-10-14.86-2.38-3.49-5.97-6.76-7.03-10.46-4.09-14.2-7.35-28.56-11.03-42.83-.55-2.1-1.76-4.12-2.65-6.17-.65-.01-1.3-.02-1.95-.03-1.12,3.29-2.44,6.55-3.32,9.88-3.92,14.96-7.54,29.96-11.67,44.88-.61,2.26-3.33,4.17-5.08,6.25-1.86-2-4.57-3.82-5.42-6.05-2.37-6.21-3.84-12.63-5.94-18.91-.83-2.49-2.38-4.84-3.61-7.24-.79.08-1.57.16-2.37.25-.95,2.42-2.4,4.79-2.76,7.26-2.05,14.12-3.81,28.27-5.72,42.4-.8,5.91-1.73,11.82-2.6,17.73-.93.22-1.85.44-2.78.66-1.54-1.86-3.07-3.73-4.74-5.76-3.92,3.91-7.14,7.12-10.35,10.35-.78-.12-1.55-.24-2.33-.36l-7.17-30.72s-1.21,10.6-1.51,11.72c-1.56,5.84-2.53,11.77-4.13,17.6-.48,1.72-2.3,3.2-3.51,4.79-2.15-1.08-4.56-1.95-6.41-3.28-2.58-1.85-4.74-4.04-7.79-6.7-2.56,2.61-4.94,4.33-6.18,6.45-2.95,5.04-7.54,6.12-14.6,6.12-11.22,0-26.48-.13-26.48-.13v10.16s15.46-.22,27.65-.22c6.62,0,10.35,1.41,13.43,5.87,4.94,7.17,6.5,6.98,13.2.65,1.81-1.71,4.8-2.67,7.26-3.98,1.32,1.92,3.26,3.74,3.83,5.79,1.58,5.66,2.44,11.43,3.84,17.11.26,1.06,1.41,10.87,1.41,10.87,2.43-10.23,4.85-20.45,7.27-30.67.79-.04,1.57-.07,2.36-.11,3.25,3.23,6.49,6.45,10.79,10.74,1.57-2.42,2.9-4.42,4.21-6.44.84.37,1.68.74,2.52,1.1.56,2.67,1.31,5.33,1.67,8.02,2.29,17.28,4.42,34.57,6.83,51.84.36,2.58,2.02,5.05,3.07,7.58.89,0,1.77,0,2.67-.01,1.63-4.4,3.34-8.79,4.85-13.21,1.87-5.42,3.41-10.91,5.51-16.27.48-1.21,2.62-2.04,3.99-3.05,1.16.98,2.81,1.81,3.38,2.97,1.52,3.1,2.9,6.29,3.75,9.54,3.76,14.44,7.29,28.92,11.04,43.36.47,1.81,1.76,3.5,2.67,5.24,2.37-2.37,3.43-4.48,3.98-6.67,3.19-12.56,6.13-25.17,9.48-37.71,1.09-4.08,2.57-8.24,4.99-11.92,4.27-6.49,9.3-12.69,14.21-18.92,2.23-2.81,4.4-5.89,7.56-7.96,6.3-4.1,13.24-7.61,19.98-11.31,1.39-.76,2.99-1.28,5.2-2.2,1.09,3.1,2.05,5.57,2.82,8.08,2.72,8.86,5.04,17.81,8.29,26.55.84,2.27,4.5,3.91,6.86,5.85,2.06-2.13,4.57-4.09,6.05-6.44,1.24-1.99,1.33-4.42,1.87-6.67,1.12-4.65,2.03-9.34,3.44-13.95.37-1.22,2.32-2.15,3.55-3.21,1.05,1.01,2.74,1.91,3.06,3.05,1.47,5.31,2.78,10.65,3.72,16.03,2.42,13.72,4.5,27.49,7,41.2.44,2.35,2.33,4.55,3.55,6.82.97.03,1.95.07,2.93.11,3.4-7.97,6.81-15.93,10.21-23.89.75.13,1.48.24,2.23.36.51,2.18,1.34,4.35,1.49,6.55,1.06,15.77,1.86,31.56,3.01,47.34,1.61,22.07,3.34,44.15,5.29,66.21.34,3.83,2.01,7.58,3.07,11.36.87.02,1.76.03,2.63.06,1.13-2.71,2.85-5.36,3.29-8.13,1.68-10.8,3.38-21.61,4.27-32.46,1.73-21.19,2.87-42.42,4.39-63.63.17-2.33,1.22-4.63,1.86-6.95.87.07,1.73.12,2.61.18,2.64,20.76,5.27,41.53,7.92,62.29h2.38c.52-1.8,1.31-3.58,1.53-5.39,2.28-19.05,4.37-38.11,6.78-57.14.42-3.41,2.02-6.73,3.08-10.09.93-.03,1.86-.06,2.78-.08,2.76,4.52,5.38,9.09,8.29,13.55,2.44,3.75,4.68,7.67,7.92,10.98,5.31,5.42,8.86,4.97,11.55-1.36,1.98-4.64,3.5-9.47,4.41-14.31,3.3-17.53,6.21-35.12,9.43-52.66.41-2.24,1.75-4.36,2.67-6.54.73-.02,1.44-.04,2.16-.06,1.37,2.1,3.16,4.09,4.05,6.3,2.85,7.03,4.98,14.24,8.21,21.15,1.48,3.19,4.84,5.84,7.36,8.74,2.46-2.96,6.15-5.71,7.14-8.94,3.29-10.74,5.55-21.66,8.3-32.5,1.09-4.32,2.49-8.59,3.74-12.88.78.04,1.55.09,2.33.15,5.21,7.74.37,17.56,8.02,26.33,1.48-3.07,2.72-4.88,3.2-6.8,1.4-5.68,2.26-11.45,3.83-17.11.57-2.05,2.52-3.86,3.84-5.79,2.45,1.31,5.44,2.26,7.25,3.98,6.71,6.33,8.27,6.52,13.2-.65,3.06-4.46,6.81-5.87,13.43-5.87,12.18,0,27.64.22,27.64.22v-10.16s-15.25.13-26.48.13"></path>
  </g>
  <polygon class="cls-2" style="fill:#1D1B1C" points="1262.16 622.76 1262.16 569.8 1230.75 580.35 1230.2 622.76 1262.16 622.76"></polygon>
  <g class="cls-7" style="fill:none">
    <path class="cls-2" style="fill:#1D1B1C" d="m1293.55,715.5c-2.38.74-4.63,1.29-6.74,1.66-2.13.37-4.06.56-5.77.56-6.7,0-11.53-2.07-14.47-6.2-2.95-4.13-4.42-10.94-4.42-20.42v-36.82l-32.21-11.3-.66,50.09c0,17.34,3.26,29.72,9.82,37.16,6.53,7.45,17.33,11.16,32.37,11.16,3.75,0,7.56-.25,11.4-.74,3.84-.49,7.56-1.23,11.16-2.2l-.49-22.94Z"></path>
  </g>
  <polygon class="cls-3" style="fill:#638EC5" points="1195.79 612.86 1289.36 612.86 1289.36 645.69 1195.79 612.86"></polygon>
  <path class="cls-2" style="fill:#1D1B1C" d="m1930.81,367.92c0,12.82-10.06,22.88-23.15,22.88s-23.29-10.06-23.29-22.88,10.34-22.6,23.29-22.6,23.15,10.06,23.15,22.6Zm-40.66,0c0,10.06,7.44,18.06,17.64,18.06s17.23-7.99,17.23-17.92-7.31-18.19-17.37-18.19-17.5,8.13-17.5,18.06Zm13.92,11.85h-5.24v-22.6c2.07-.41,4.96-.69,8.68-.69,4.27,0,6.2.69,7.86,1.65,1.24.96,2.21,2.76,2.21,4.96,0,2.48-1.93,4.41-4.69,5.24v.28c2.21.83,3.45,2.48,4.13,5.51.69,3.45,1.1,4.82,1.65,5.65h-5.65c-.69-.83-1.1-2.89-1.79-5.51-.41-2.48-1.79-3.58-4.69-3.58h-2.48v9.1Zm.14-12.82h2.48c2.89,0,5.24-.96,5.24-3.31,0-2.07-1.52-3.45-4.82-3.45-1.38,0-2.34.14-2.89.28v6.48Z"></path>
</svg>